<svg width="200" height="48" viewBox="0 0 200 48" fill="none" xmlns="http://www.w3.org/2000/svg">
  <defs>
    <linearGradient id="grad-c" x1="0" y1="0" x2="48" y2="48" gradientUnits="userSpaceOnUse">
      <stop offset="0%" stop-color="#2fcf8f"/>
      <stop offset="100%" stop-color="#bef264"/>
    </linearGradient>
  </defs>
  <!-- Icône fond dégradé -->
  <rect width="48" height="48" rx="12" fill="url(#grad-c)"/>
  <!-- Accolade gauche { -->
  <path d="M22 10 C18.5 10 17.5 11.5 17.5 14.5L17.5 21C17.5 22.5 16 23.5 14 24C16 24.5 17.5 25.5 17.5 27L17.5 33.5C17.5 36.5 18.5 38 22 38"
        stroke="#001a0e" stroke-width="3" stroke-linecap="round" stroke-linejoin="round" fill="none" opacity="0.85"/>
  <!-- Accolade droite } -->
  <path d="M26 10 C29.5 10 30.5 11.5 30.5 14.5L30.5 21C30.5 22.5 32 23.5 34 24C32 24.5 30.5 25.5 30.5 27L30.5 33.5C30.5 36.5 29.5 38 26 38"
        stroke="#001a0e" stroke-width="3" stroke-linecap="round" stroke-linejoin="round" fill="none" opacity="0.85"/>
  <!-- Point central -->
  <circle cx="24" cy="24" r="2.5" fill="#001a0e" opacity="0.85"/>
  <!-- Texte -->
  <text x="60" y="32" font-family="'Syne', 'Inter', system-ui, sans-serif" font-weight="800" font-size="22" letter-spacing="-0.5" fill="#0c1512">Jambo</text>
  <text x="128" y="32" font-family="'Syne', 'Inter', system-ui, sans-serif" font-weight="400" font-size="22" letter-spacing="-0.3" fill="#2fcf8f">API</text>
</svg>
